<?xml version="1.0" encoding="UTF-8"?>
<svg id="Layer_1" xmlns="http://www.w3.org/2000/svg" xmlns:xlink="http://www.w3.org/1999/xlink" version="1.1" viewBox="0 0 1024 1024">
  <!-- Generator: Adobe Illustrator 29.8.1, SVG Export Plug-In . SVG Version: 2.1.1 Build 2)  -->
  <defs>
    <style>
      .st0 {
        fill: none;
      }

      .st1 {
        clip-path: url(#clippath-1);
      }

      .st2 {
        clip-path: url(#clippath);
      }
    </style>
    <clipPath id="clippath">
      <path class="st0" d="M874,150C774.1,50,643,0,512,0S249.9,50,150,150c-199.9,199.9-199.9,524.1,0,724.1,100,100,231,150,362,150s262.1-50,362-150c199.9-199.9,199.9-524.1,0-724.1ZM100,512c0-53.6,10.1-105.7,30.2-155.1,20.7-51,51.2-96.9,90.5-136.2s85.2-69.8,136.2-90.5c49.4-20,101.5-30.2,155.1-30.2s105.7,10.1,155.1,30.2c35.6,14.4,68.7,33.6,98.8,57.3L187.4,765.9c-23.6-30.1-42.8-63.2-57.3-98.8-20-49.4-30.2-101.5-30.2-155.1h.1ZM803.3,803.3c-39.4,39.4-85.2,69.8-136.2,90.5-49.4,20-101.5,30.2-155.1,30.2s-105.7-10.1-155.1-30.2c-35.6-14.4-68.7-33.6-98.8-57.3L836.6,258.1c23.6,30.1,42.8,63.2,57.3,98.8,20,49.4,30.2,101.5,30.2,155.1s-10.1,105.7-30.2,155.1c-20.7,51-51.2,96.9-90.5,136.2h0Z"/>
    </clipPath>
    <clipPath id="clippath-1">
      <rect class="st0" x="-4.9" y="-5" width="1033.8" height="1034.1"/>
    </clipPath>
  </defs>
  <path d="M533.6,149.3l42.5,96.9c39.5,90.2,111.6,162.2,201.8,201.8l96.9,42.5c18.8,8.3,18.8,35,0,43.2l-96.9,42.5c-90.2,39.5-162.2,111.6-201.8,201.8l-42.5,96.9c-8.3,18.8-35,18.8-43.2,0l-42.5-96.9c-39.5-90.2-111.6-162.2-201.8-201.8l-96.9-42.5c-18.8-8.3-18.8-35,0-43.2l96.9-42.5c90.2-39.5,162.2-111.6,201.8-201.8l42.5-96.9c8.3-18.8,35-18.8,43.2,0Z"/>
  <g class="st2">
    <g class="st1">
      <image width="2155" height="2155" transform="translate(-5.3 -5.1) scale(.5)" xlink:href="icon-1.png"/>
    </g>
  </g>
</svg>