<?xml version="1.0" encoding="UTF-8"?>
<svg id="Layer_1" xmlns="http://www.w3.org/2000/svg" xmlns:xlink="http://www.w3.org/1999/xlink" xmlns:i="http://ns.adobe.com/AdobeIllustrator/10.0/" version="1.1" viewBox="0 0 1024 1024">
  <!-- Generator: Adobe Illustrator 29.8.1, SVG Export Plug-In . SVG Version: 2.1.1 Build 2)  -->
  <defs>
    <style>
      .st0 {
        fill: none;
      }

      .st1 {
        fill: #efefef;
      }

      .st2 {
        isolation: isolate;
      }

      .st3 {
        clip-path: url(#clippath-1);
      }

      .st4 {
        fill: #121212;
      }

      .st5 {
        clip-path: url(#clippath);
      }
    </style>
    <clipPath id="clippath">
      <path class="st0" d="M874,150C774.1,50,643,0,512,0S249.9,50,150,150c-199.9,199.9-199.9,524.1,0,724.1,100,100,231,150,362,150s262.1-50,362-150c199.9-199.9,199.9-524.1,0-724.1ZM100,512c0-53.6,10.1-105.7,30.2-155.1,20.7-51,51.2-96.9,90.5-136.2s85.2-69.8,136.2-90.5c49.4-20,101.5-30.2,155.1-30.2s105.7,10.1,155.1,30.2c35.6,14.4,68.7,33.6,98.8,57.3L187.4,765.9c-23.6-30.1-42.8-63.2-57.3-98.8-20-49.4-30.2-101.5-30.2-155.1h.1ZM803.3,803.3c-39.4,39.4-85.2,69.8-136.2,90.5-49.4,20-101.5,30.2-155.1,30.2s-105.7-10.1-155.1-30.2c-35.6-14.4-68.7-33.6-98.8-57.3L836.6,258.1c23.6,30.1,42.8,63.2,57.3,98.8,20,49.4,30.2,101.5,30.2,155.1s-10.1,105.7-30.2,155.1c-20.7,51-51.2,96.9-90.5,136.2h0Z"/>
    </clipPath>
    <clipPath id="clippath-1">
      <rect class="st0" x="-4.9" y="-5" width="1033.8" height="1034.1"/>
    </clipPath>
  </defs>
  <g>
    <path class="st4" d="M512,899c-13.5,0-25.3-7.7-30.7-20.1l-42.5-96.9c-38.6-88.1-108.4-157.9-196.7-196.7l-96.9-42.5c-12.4-5.5-20.1-17.3-20.1-30.9,0-13.5,7.7-25.3,20.1-30.7l96.9-42.5c88.1-38.6,157.9-108.4,196.7-196.7l42.5-96.9c5.5-12.4,17.3-20.1,30.8-20.1s25.3,7.7,30.7,20.1l42.5,96.9c38.6,88.1,108.4,157.9,196.7,196.7l96.9,42.5c12.4,5.5,20.1,17.3,20.1,30.9,0,13.5-7.7,25.3-20.1,30.7l-96.9,42.5c-88.1,38.6-157.9,108.4-196.7,196.7l-42.5,96.9c-5.5,12.4-17.3,20.1-30.8,20.1Z"/>
    <path class="st1" d="M512,135.2c8.7,0,17.5,4.7,21.6,14.1l42.5,96.9c39.5,90.2,111.6,162.2,201.8,201.8l96.9,42.5c18.8,8.3,18.8,35,0,43.2l-96.9,42.5c-90.2,39.5-162.2,111.6-201.8,201.8l-42.5,96.9c-4.2,9.4-12.9,14.1-21.6,14.1s-17.5-4.7-21.6-14.1l-42.5-96.9c-39.5-90.2-111.6-162.2-201.8-201.8l-96.9-42.5c-18.8-8.3-18.8-35,0-43.2l96.9-42.5c90.2-39.5,162.2-111.6,201.8-201.8l42.5-96.9c4.1-9.4,12.9-14.1,21.6-14.1M512,115.2c-17.5,0-32.8,10-39.9,26l-42.5,96.9c-18.7,42.6-44.9,80.9-77.8,113.8-32.9,32.9-71.2,59.1-113.8,77.7l-96.9,42.5c-16,7-26,22.2-26.1,39.8,0,17.6,9.9,32.9,26,40l96.9,42.5c42.6,18.7,80.9,44.9,113.8,77.8,32.9,32.9,59.1,71.2,77.7,113.8l42.5,96.9c7,16.1,22.3,26.1,39.9,26.1s32.8-10,39.9-26l42.5-96.9c18.7-42.6,44.9-80.9,77.8-113.8,32.9-32.9,71.2-59.1,113.8-77.7l96.9-42.5c16-7,26-22.2,26.1-39.8,0-17.6-9.9-32.9-26-40l-96.9-42.5c-42.6-18.7-80.9-44.9-113.8-77.8-32.9-32.9-59.1-71.2-77.7-113.8l-42.5-96.9c-7-16.1-22.3-26.1-39.9-26.1h0Z"/>
  </g>
  <g class="st5">
    <g class="st3">
      <image class="st2" width="2155" height="2155" transform="translate(-5.3 -5.1) scale(.5)" xlink:href="icon-1.png"/>
    </g>
  </g>
</svg>